<svg width="78" height="26" xmlns="http://www.w3.org/2000/svg" xmlns:xlink="http://www.w3.org/1999/xlink">
    <defs>
        <filter color-interpolation-filters="auto" id="c">
            <feColorMatrix in="SourceGraphic" values="0 0 0 0 0.000000 0 0 0 0 0.568627 0 0 0 0 0.243137 0 0 0 1.000000 0"/>
        </filter>
        <path id="a" d="M0 0h30v15.554H0z"/>
    </defs>
    <g fill="none" fill-rule="evenodd">
        <path d="M66.782 6.467h-3.316a16.31 16.31 0 0 0-5.45.93 16.416 16.416 0 0 0-7.712 5.605 15.2 15.2 0 0 1 2.225-2.783l3.545-3.52L62.804 0l.144.14a15.018 15.018 0 0 1 3.834 6.327M55.174 6.209l-3.342 3.318a16.233 16.233 0 0 0-3.83 5.961V4.548h.177c2.513 0 4.895.597 6.995 1.66" fill="#009330"/>
        <g transform="translate(48 7.446)">
            <mask id="b" fill="#fff">
                <use xlink:href="#a"/>
            </mask>
            <path d="M30 0v.195c0 8.106-6.318 14.736-14.338 15.323-.375.018-.751.036-1.127.036H0v-.178c0-.338.018-.693.035-1.031C.447 8.088 4.636 2.862 10.346.871 11.957.302 13.676 0 15.466 0H30z" fill="#009330" mask="url(#b)"/>
        </g>
        <g>
            <path d="M41.324 8.789v10.029c0 1.626-1.258 2.966-2.865 3.123v-10.03c0-1.625 1.26-2.965 2.865-3.122" fill="#F3AF31"/>
            <g filter="url(#c)" transform="translate(0 1.217)">
                <g fill="#666">
                    <path d="M32.004 24.783h2.836v-2.796h-2.836zM21.397 15.317h2.837V12.52h-2.837zM37.177 17.934v2.797H31.81c-2.413 0-4.374-1.937-4.374-4.313V6.238c0-1.607 1.244-2.935 2.836-3.095v13.275c0 .835.69 1.516 1.538 1.516h5.367z"/>
                    <path d="M28.233 20.727h-7.63a4.372 4.372 0 0 1-2.72-.935l-.18-.145a4.297 4.297 0 0 1-2.878 1.1H0c0-.773.318-1.47.83-1.978a2.857 2.857 0 0 1 2.003-.817h1.038c.111-.01.223-.018.334-.018h1.188l.623.018h8.809c.786 0 1.445-.618 1.448-1.39a5.91 5.91 0 0 0-1.225-3.648 5.95 5.95 0 0 0-.854-.904l2-1.987c.311.28.604.58.872.901v.003a8.814 8.814 0 0 1 1.385 2.288c.343.832.56 1.73.627 2.666.019.178.025.364.025.546l.003.097c0 .069-.006.132-.01.198l.004.025a1.544 1.544 0 0 0 1.502 1.187h5.772a5.597 5.597 0 0 0 1.859 2.793"/>
                    <path d="M21.188 1.984c0 .838-.328 1.626-.926 2.222l-9.678 9.603a3.112 3.112 0 0 1 .204-4.207L20.462 0c.471.559.723 1.252.726 1.984"/>
                </g>
            </g>
            <path d="M45.548 4.36c-.16 1.584-1.519 2.824-3.168 2.824h-8.146c.163-1.582 1.522-2.825 3.168-2.825h8.146z" fill="#F3AF31"/>
        </g>
    </g>
</svg>
